<?xml version="1.0" encoding="UTF-8"?>
<svg width="241px" height="23px" viewBox="0 0 241 23" version="1.1" xmlns="http://www.w3.org/2000/svg" xmlns:xlink="http://www.w3.org/1999/xlink">
    <!-- Generator: Sketch 53.2 (72643) - https://sketchapp.com -->
    <title>Logo</title>
    <desc>Created with Sketch.</desc>
    <g id="Symbols" stroke="none" stroke-width="1" fill="none" fill-rule="evenodd">
        <g id="Navigation" transform="translate(-51.000000, -42.000000)">
            <g id="Logo">
                <g transform="translate(51.000000, 42.000000)">
                    <path d="M210.797,22.3622 L210.797,18.4902 C213.484,17.6232 215.381,15.2682 215.381,11.2102 C215.381,7.1522 213.484,4.7672 210.797,3.9302 L210.797,0.0592 C215.697,0.1822 219.742,5.4182 219.648,11.1792 C219.742,16.9412 215.697,22.2692 210.797,22.3622" id="Fill-1" fill="#FFFFFF"></path>
                    <path d="M204.8202,0.0014 L204.8202,3.8734 C202.1332,4.7414 200.2362,7.0954 200.2362,11.1534 C200.2362,15.2114 202.1332,17.5964 204.8202,18.4334 L204.8202,22.3054 C199.9212,22.1814 195.8752,16.9454 195.9692,11.1844 C195.8752,5.4224 199.9212,0.0944 204.8202,0.0014" id="Fill-3" fill="#FFFFFF"></path>
                    <polygon id="Fill-6" fill="#4E4D43" points="0 0.3122 0 3.6352 7.609 3.6352 7.609 22.0522 11.335 22.0522 11.335 3.6352 18.976 3.6352 18.976 0.3122"></polygon>
                    <path d="M22.7646,0.3121 L32.5476,0.3121 C36.3676,0.3121 39.2866,2.8281 39.2866,6.2121 C39.2866,8.9771 37.9826,10.8711 35.6526,11.7091 C38.0136,11.7091 38.9756,12.6721 38.9756,14.7841 L38.9756,22.0511 L35.2496,22.0511 L35.2496,15.7161 C35.2496,14.0701 34.7836,13.6351 33.1686,13.6351 L26.5226,13.6351 L26.5226,22.0511 L22.7646,22.0511 L22.7646,0.3121 Z M31.6466,10.3431 C34.1316,10.3431 35.5596,9.0081 35.5596,6.8651 C35.5596,4.7221 34.2246,3.6351 31.6466,3.6351 L26.5226,3.6351 L26.5226,10.3431 L31.6466,10.3431 Z" id="Fill-7" fill="#4E4D43"></path>
                    <path d="M50.6223,0.3122 L42.0203,22.0522 L45.9013,22.0522 L47.9523,16.7412 L57.6103,16.7412 L59.6603,22.0522 L63.5733,22.0522 L55.1263,0.3122 L50.6223,0.3122 Z M52.7653,4.1942 L56.3063,13.3862 L49.2243,13.3862 L52.7653,4.1942 Z" id="Fill-9" fill="#4E4D43"></path>
                    <polygon id="Fill-10" fill="#4E4D43" points="81.2439 0.3122 81.2439 17.1132 72.0509 0.3122 67.0509 0.3122 67.0509 22.0522 70.8089 22.0522 70.8089 5.2192 80.0019 22.0522 84.9709 22.0522 84.9709 0.3122"></polygon>
                    <path d="M92.9522,14.8773 C93.0142,17.4243 95.0022,19.0393 98.1702,19.0393 L98.4802,19.0393 C100.9962,19.0393 102.4552,17.7033 102.4552,16.1203 C102.4552,14.6293 101.6482,13.7593 99.5672,13.3553 L95.8712,12.6103 C92.1762,11.8343 90.3122,9.7223 90.3122,6.3993 C90.3122,2.9823 93.3872,0.0013 98.3562,0.0013 C103.3562,0.0013 106.4312,2.8583 106.4932,7.0203 L102.7662,7.0203 C102.5802,4.6913 100.8402,3.3243 98.4182,3.3243 L98.1072,3.3243 C95.6542,3.3243 94.0392,4.6293 94.0392,6.2753 C94.0392,7.7963 94.9402,8.6043 96.8342,9.0073 L100.1882,9.6603 C104.0392,10.4363 106.1822,12.4553 106.1822,15.9023 C106.1822,19.6913 103.0452,22.3623 97.9212,22.3623 C92.3932,22.3623 89.4122,19.5363 89.2252,14.8773 L92.9522,14.8773 Z" id="Fill-11" fill="#4E4D43"></path>
                    <path d="M111.0583,0.3121 L120.5923,0.3121 C124.6923,0.3121 127.5803,2.7961 127.5803,7.0511 C127.5803,11.2441 124.6923,13.7901 120.5923,13.7901 L114.8163,13.7901 L114.8163,22.0511 L111.0583,22.0511 L111.0583,0.3121 Z M120.1263,10.4361 C122.5183,10.4361 123.8533,9.1631 123.8533,7.0511 C123.8533,4.9081 122.5183,3.6351 120.1263,3.6351 L114.8163,3.6351 L114.8163,10.4361 L120.1263,10.4361 Z" id="Fill-14" fill="#4E4D43"></path>
                    <path d="M140.9966,0.0014 C147.0216,-0.0916 151.4936,4.3494 151.4316,11.1814 C151.4316,18.0764 147.0836,22.3624 140.9966,22.3624 C134.9096,22.3624 130.5616,18.0764 130.5616,11.1814 C130.4996,4.3494 134.9406,-0.0916 140.9966,0.0014 L140.9966,0.0014 Z M141.1516,19.0394 C145.1276,19.0394 147.7046,16.0574 147.7046,11.1814 C147.7046,6.3054 145.1276,3.3244 141.1516,3.3244 L140.8416,3.3244 C136.8976,3.3244 134.3196,6.3054 134.3196,11.1814 C134.3196,16.0574 136.8976,19.0394 140.8416,19.0394 L141.1516,19.0394 Z" id="Fill-16" fill="#4E4D43"></path>
                    <path d="M156.1211,0.3121 L165.9041,0.3121 C169.7241,0.3121 172.6431,2.8281 172.6431,6.2121 C172.6431,8.9771 171.3391,10.8711 169.0091,11.7091 C171.3701,11.7091 172.3321,12.6721 172.3321,14.7841 L172.3321,22.0511 L168.6061,22.0511 L168.6061,15.7161 C168.6061,14.0701 168.1401,13.6351 166.5251,13.6351 L159.8791,13.6351 L159.8791,22.0511 L156.1211,22.0511 L156.1211,0.3121 Z M165.0031,10.3431 C167.4881,10.3431 168.9161,9.0081 168.9161,6.8651 C168.9161,4.7221 167.5811,3.6351 165.0031,3.6351 L159.8791,3.6351 L159.8791,10.3431 L165.0031,10.3431 Z" id="Fill-19" fill="#4E4D43"></path>
                    <polygon id="Fill-22" fill="#4E4D43" points="177.8922 0.3122 177.8922 22.0522 194.4132 22.0522 194.4132 18.7292 181.6502 18.7292 181.6502 12.5482 192.2402 12.5482 192.2402 9.2252 181.6502 9.2252 181.6502 3.6352 194.1032 3.6352 194.1032 0.3122"></polygon>
                    <polygon id="Fill-23" fill="#4E4D43" points="236.3067 0.3122 236.3067 17.1132 227.1137 0.3122 222.1137 0.3122 222.1137 22.0522 225.8707 22.0522 225.8707 5.2192 235.0637 22.0522 240.0327 22.0522 240.0327 0.3122"></polygon>
                </g>
            </g>
        </g>
    </g>
</svg>